<svg width="525" height="118" viewBox="0 0 525 118" fill="none" xmlns="http://www.w3.org/2000/svg">
<path d="M-0.000117213 47.04H31.1499V36.19H12.0399V0.840037H-0.000117213V47.04ZM37.4608 47.04H70.3608V36.19H49.5008V28.14H63.7808V18.06H49.5008V11.69H69.5208V0.840037H37.4608V47.04ZM87.8012 47.04H99.8412V11.69H113.701V0.840037H73.9412V11.69H87.8012V47.04ZM119.714 21.28H128.814L133.364 0.840037H119.714V21.28ZM138.084 37.52C141.444 43.89 148.164 47.88 156.494 47.88C166.084 47.88 173.434 42.42 173.434 33.46C173.434 26.95 169.654 22.89 161.604 19.53L156.284 17.29C153.274 16.1 152.294 15.19 152.294 13.51C152.294 11.55 153.904 10.57 156.424 10.57C159.714 10.57 161.814 12.11 164.054 15.47L172.104 9.31004C169.304 3.64004 163.914 3.55244e-05 156.284 3.55244e-05C146.834 3.55244e-05 140.114 5.46004 140.114 13.65C140.114 19.88 144.174 24.22 151.804 27.58L156.564 29.68C160.204 31.29 161.254 31.92 161.254 33.95C161.254 36.19 159.644 37.31 156.494 37.31C151.804 37.31 148.934 35 146.204 31.36L138.084 37.52ZM243.073 3.55244e-05L223.403 24.01L203.733 3.55244e-05H199.883V47.04H211.923V27.72L221.443 38.85H225.293L234.883 27.65V47.04H246.923V3.55244e-05H243.073ZM284.562 47.04H297.512L276.512 3.55244e-05H272.662L251.662 47.04H264.612L266.292 43.19H282.882L284.562 47.04ZM278.612 33.53H270.562L274.622 22.82L278.612 33.53ZM346.175 47.04L327.695 22.82L343.585 0.840037H329.585L314.325 21.77V0.840037H302.285V47.04H314.325V24.01L331.895 47.04H346.175ZM350.957 47.04H383.857V36.19H362.997V28.14H377.277V18.06H362.997V11.69H383.017V0.840037H350.957V47.04ZM435.91 47.04H448.86L427.86 3.55244e-05H424.01L403.01 47.04H415.96L417.64 43.19H434.23L435.91 47.04ZM429.96 33.53H421.91L425.97 22.82L429.96 33.53ZM37.1699 103.32C37.1699 98 34.2999 94.22 29.4699 92.26C31.3599 90.16 32.2699 87.57 32.2699 84.49C32.2699 76.44 25.5499 70.84 16.6599 70.84H-0.000117213V117.04H21.5599C30.4499 117.04 37.1699 111.3 37.1699 103.32ZM15.8899 80.99C18.7599 80.99 20.5099 82.6 20.5099 85.05C20.5099 87.5 18.7599 89.11 15.8899 89.11H11.5499V80.99H15.8899ZM25.4099 102.83C25.4099 105.56 23.6599 106.89 20.7899 106.89H11.5499V98.77H20.7899C23.6599 98.77 25.4099 100.1 25.4099 102.83ZM43.6815 117.04H76.5815V106.19H55.7215V98.14H70.0015V88.06H55.7215V81.69H75.7415V70.84H43.6815V117.04ZM94.0219 117.04H106.062V81.69H119.922V70.84H80.1619V81.69H94.0219V117.04ZM135.174 117.04H147.214V81.69H161.074V70.84H121.314V81.69H135.174V117.04ZM166.387 117.04H199.287V106.19H178.427V98.14H192.707V88.06H178.427V81.69H198.447V70.84H166.387V117.04ZM247.667 117.04L235.487 99.89C240.037 97.09 242.767 92.4 242.767 86.73C242.767 77.14 235.207 70.84 224.917 70.84H206.787V117.04H218.827V102.69H223.797L234.227 117.04H247.667ZM218.827 81.34H224.987C228.347 81.34 230.517 83.44 230.517 86.73C230.517 90.02 228.347 92.19 224.987 92.19H218.827V81.34Z" fill="#3D3D3D"/>
<path d="M272.07 117.04H284.11V102.69H290.2C300.28 102.69 308.05 96.18 308.05 86.73C308.05 77.14 300.49 70.84 290.2 70.84H272.07V117.04ZM284.11 92.19V81.34H290.27C293.63 81.34 295.8 83.44 295.8 86.73C295.8 90.02 293.63 92.19 290.27 92.19H284.11ZM314.59 117.04H345.74V106.19H326.63V70.84H314.59V117.04ZM380.471 117.04H393.421L372.421 70H368.571L347.571 117.04H360.521L362.201 113.19H378.791L380.471 117.04ZM374.521 103.53H366.471L370.531 92.82L374.521 103.53ZM427.103 70.84V93.94L402.043 70H398.193V117.04H410.233V93.59L435.293 117.88H439.143V70.84H427.103ZM448.369 117.04H481.269V106.19H460.409V98.14H474.689V88.06H460.409V81.69H480.429V70.84H448.369V117.04ZM498.709 117.04H510.749V81.69H524.609V70.84H484.849V81.69H498.709V117.04Z" fill="#46A358"/>
</svg>
